<svg width="20" height="20" viewBox="0 0 20 20" fill="none" xmlns="http://www.w3.org/2000/svg">
<g clip-path="url(#clip0_1222_42212)">
<path d="M2.14285 2.85706C1.76396 2.85706 1.40061 3.00757 1.1327 3.27547C0.864789 3.54338 0.714279 3.90674 0.714279 4.28563V17.8571C0.714279 18.2359 0.864789 18.5993 1.1327 18.8672C1.40061 19.1351 1.76396 19.2856 2.14285 19.2856H17.8571C18.236 19.2856 18.5994 19.1351 18.8673 18.8672C19.1351 18.5993 19.2857 18.2359 19.2857 17.8571V4.28563C19.2857 3.90674 19.1351 3.54338 18.8673 3.27547C18.5994 3.00757 18.236 2.85706 17.8571 2.85706H15" stroke="white" stroke-linecap="round" stroke-linejoin="round"/>
<path d="M0.714279 7.85706H19.2857" stroke="white" stroke-linecap="round" stroke-linejoin="round"/>
<path d="M5 0.714233V4.99995" stroke="white" stroke-linecap="round" stroke-linejoin="round"/>
<path d="M15 0.714233V4.99995" stroke="white" stroke-linecap="round" stroke-linejoin="round"/>
<path d="M5 2.85706H12.1429" stroke="white" stroke-linecap="round" stroke-linejoin="round"/>
</g>
<defs>
<clipPath id="clip0_1222_42212">
<rect width="20" height="20" fill="white"/>
</clipPath>
</defs>
</svg>
