<svg width="20" height="20" viewBox="0 0 20 20" fill="none" xmlns="http://www.w3.org/2000/svg">
<path d="M8.57134 3.57139C8.96583 3.57139 9.28563 3.2516 9.28563 2.85711C9.28563 2.46262 8.96583 2.14282 8.57134 2.14282C8.17685 2.14282 7.85706 2.46262 7.85706 2.85711C7.85706 3.2516 8.17685 3.57139 8.57134 3.57139Z" stroke="#F4F4F4"/>
<path d="M17.1429 9.28575C17.5374 9.28575 17.8572 8.96595 17.8572 8.57146C17.8572 8.17697 17.5374 7.85718 17.1429 7.85718C16.7484 7.85718 16.4286 8.17697 16.4286 8.57146C16.4286 8.96595 16.7484 9.28575 17.1429 9.28575Z" stroke="#F4F4F4"/>
<path d="M11.4285 17.8573C11.823 17.8573 12.1428 17.5375 12.1428 17.143C12.1428 16.7485 11.823 16.4287 11.4285 16.4287C11.034 16.4287 10.7142 16.7485 10.7142 17.143C10.7142 17.5375 11.034 17.8573 11.4285 17.8573Z" stroke="#F4F4F4"/>
<path d="M2.85711 12.1429C3.2516 12.1429 3.57139 11.8231 3.57139 11.4286C3.57139 11.0342 3.2516 10.7144 2.85711 10.7144C2.46262 10.7144 2.14282 11.0342 2.14282 11.4286C2.14282 11.8231 2.46262 12.1429 2.85711 12.1429Z" stroke="#F4F4F4"/>
<path d="M12.5616 1.74146V8.79391" stroke="#F4F4F4" stroke-linecap="round" stroke-linejoin="round"/>
<path d="M7.43335 11.2114V18.2639" stroke="#F4F4F4" stroke-linecap="round" stroke-linejoin="round"/>
<path d="M1.73572 7.43896H8.78802" stroke="#F4F4F4" stroke-linecap="round" stroke-linejoin="round"/>
<path d="M11.2056 12.5674H18.2582" stroke="#F4F4F4" stroke-linecap="round" stroke-linejoin="round"/>
</svg>
