<svg width="30" height="20" viewBox="0 0 30 20" fill="none" xmlns="http://www.w3.org/2000/svg">
<path d="M18.2143 0.714233H11.7857C10.6023 0.714233 9.64285 1.35383 9.64285 2.1428V2.85709C9.64285 3.64606 10.6023 4.28566 11.7857 4.28566H18.2143C19.3977 4.28566 20.3571 3.64606 20.3571 2.85709V2.1428C20.3571 1.35383 19.3977 0.714233 18.2143 0.714233Z" stroke="#F4F4F4" stroke-linecap="round" stroke-linejoin="round"/>
<path d="M15 8.57141V15.7143" stroke="#F4F4F4" stroke-linecap="round" stroke-linejoin="round"/>
<path d="M20.3571 12.1428H9.64285" stroke="#F4F4F4" stroke-linecap="round" stroke-linejoin="round"/>
<path d="M20.8929 2.14282H24.1071C24.6754 2.14282 25.2206 2.29334 25.6224 2.56124C26.0241 2.82915 26.25 3.19251 26.25 3.57139V17.8571C26.25 18.236 26.0241 18.5994 25.6224 18.8672C25.2206 19.1351 24.6754 19.2857 24.1071 19.2857H5.89286C5.32453 19.2857 4.77949 19.1351 4.37762 18.8672C3.97577 18.5994 3.75 18.236 3.75 17.8571V3.57139C3.75 3.19251 3.97577 2.82915 4.37762 2.56124C4.77949 2.29334 5.32453 2.14282 5.89286 2.14282H9.10714" stroke="#F4F4F4" stroke-linecap="round" stroke-linejoin="round"/>
</svg>
