<svg width="20" height="20" viewBox="0 0 20 20" fill="none" xmlns="http://www.w3.org/2000/svg">
<g clip-path="url(#clip0_1222_43247)">
<path d="M7.14285 17.4858L0.714279 19.2858L2.51428 12.8572L14.2857 1.14296C14.4187 1.00689 14.5777 0.898778 14.753 0.824968C14.9284 0.751156 15.1168 0.713135 15.3071 0.713135C15.4974 0.713135 15.6858 0.751156 15.8613 0.824968C16.0366 0.898778 16.1956 1.00689 16.3286 1.14296L18.8571 3.68581C18.991 3.81861 19.0973 3.97663 19.1698 4.1507C19.2424 4.32478 19.2797 4.51151 19.2797 4.7001C19.2797 4.88868 19.2424 5.07541 19.1698 5.2495C19.0973 5.42358 18.991 5.58158 18.8571 5.71438L7.14285 17.4858Z" stroke="#F4F4F4" stroke-linecap="round" stroke-linejoin="round"/>
</g>
<defs>
<clipPath id="clip0_1222_43247">
<rect width="20" height="20" fill="white"/>
</clipPath>
</defs>
</svg>
