<svg width="22" height="22" viewBox="0 0 22 22" fill="none" xmlns="http://www.w3.org/2000/svg">
<path d="M20.2392 8.58154C20.4794 8.48142 20.6345 8.43696 20.7772 8.29439C20.9198 8.1518 21 7.95845 21 7.75682C21 7.55518 20.9198 7.36181 20.7772 7.21925C20.6345 7.07668 20.5863 6.99126 20.2392 6.88944C19.892 6.78763 3.01449 1.08197 3.01449 1.08197C2.74515 0.989832 2.45535 0.975036 2.17803 1.03927C1.90071 1.1035 1.64697 1.24419 1.44567 1.44533C1.24437 1.64648 1.10358 1.90003 1.0393 2.17714C0.975018 2.45426 0.989824 2.74383 1.08204 3.01297C1.08204 3.01297 6.92262 20.0088 6.99397 20.2398C7.06532 20.4709 7.15737 20.6348 7.30005 20.7774C7.44272 20.92 7.63623 21 7.83802 21C8.0398 21 8.23331 20.92 8.37599 20.7774C8.51866 20.6348 8.55128 20.554 8.65823 20.2398C8.7652 19.9257 11.6421 11.634 11.6421 11.634C11.6421 11.634 19.9991 8.68167 20.2392 8.58154Z" stroke="white" stroke-linecap="round" stroke-linejoin="round"/>
</svg>
