<svg width="20" height="20" viewBox="0 0 20 20" fill="none" xmlns="http://www.w3.org/2000/svg">
<g clip-path="url(#clip0_1222_46434)">
<path d="M10 19.2858C15 19.2858 18.5714 17.5171 18.5714 13.5803C18.5714 9.30114 16.4286 6.44838 12.1429 4.30883L13.8286 2.14073C13.9142 1.99848 13.9607 1.83616 13.9632 1.6702C13.9658 1.50424 13.9244 1.34057 13.8431 1.19575C13.7619 1.05094 13.6438 0.930143 13.5007 0.845601C13.3577 0.76106 13.1948 0.715781 13.0286 0.714355H6.97145C6.80522 0.715781 6.64233 0.76106 6.49929 0.845601C6.35623 0.930143 6.23812 1.05094 6.1569 1.19575C6.07567 1.34057 6.03425 1.50424 6.0368 1.6702C6.03936 1.83616 6.0858 1.99848 6.17145 2.14073L7.85716 4.32308C3.57145 6.47691 1.42859 9.32967 1.42859 13.6088C1.42859 17.5171 5.00002 19.2858 10 19.2858Z" stroke="white" stroke-linecap="round" stroke-linejoin="round"/>
<path d="M11.9755 9.72242C11.9075 9.53019 11.8027 9.3554 11.6695 9.20655C11.3861 8.88993 10.9743 8.69067 10.5159 8.69067H9.31799C8.55502 8.69067 7.93652 9.30917 7.93652 10.0721C7.93652 10.7213 8.38857 11.2829 9.02278 11.4217L10.8466 11.8206C11.5571 11.9761 12.0635 12.6057 12.0635 13.333C12.0635 14.1877 11.3706 14.8812 10.5159 14.8812H9.48415C8.81031 14.8812 8.23705 14.4505 8.02459 13.8494" stroke="white" stroke-linecap="round" stroke-linejoin="round"/>
<path d="M10 8.69045V7.14282" stroke="white" stroke-linecap="round" stroke-linejoin="round"/>
<path d="M10 16.4288V14.8811" stroke="white" stroke-linecap="round" stroke-linejoin="round"/>
</g>
<defs>
<clipPath id="clip0_1222_46434">
<rect width="20" height="20" fill="white"/>
</clipPath>
</defs>
</svg>
