<svg width="20" height="20" viewBox="0 0 20 20" fill="none" xmlns="http://www.w3.org/2000/svg">
<path d="M1.42852 4.28575C1.823 4.28575 2.1428 3.96595 2.1428 3.57146C2.1428 3.17698 1.823 2.85718 1.42852 2.85718C1.03403 2.85718 0.714233 3.17698 0.714233 3.57146C0.714233 3.96595 1.03403 4.28575 1.42852 4.28575Z" stroke="#F4F4F4" stroke-linecap="round" stroke-linejoin="round"/>
<path d="M6.42847 3.57141H19.2856" stroke="#F4F4F4" stroke-linecap="round" stroke-linejoin="round"/>
<path d="M1.42852 10.7143C1.823 10.7143 2.1428 10.3945 2.1428 10.0001C2.1428 9.60557 1.823 9.28577 1.42852 9.28577C1.03403 9.28577 0.714233 9.60557 0.714233 10.0001C0.714233 10.3945 1.03403 10.7143 1.42852 10.7143Z" stroke="#F4F4F4" stroke-linecap="round" stroke-linejoin="round"/>
<path d="M6.42847 10H19.2856" stroke="#F4F4F4" stroke-linecap="round" stroke-linejoin="round"/>
<path d="M1.42852 17.1429C1.823 17.1429 2.1428 16.8231 2.1428 16.4286C2.1428 16.0342 1.823 15.7144 1.42852 15.7144C1.03403 15.7144 0.714233 16.0342 0.714233 16.4286C0.714233 16.8231 1.03403 17.1429 1.42852 17.1429Z" stroke="#F4F4F4" stroke-linecap="round" stroke-linejoin="round"/>
<path d="M6.42847 16.4286H19.2856" stroke="#F4F4F4" stroke-linecap="round" stroke-linejoin="round"/>
</svg>
