<svg width="70" height="70" viewBox="0 0 70 70" fill="none" xmlns="http://www.w3.org/2000/svg">
<g clip-path="url(#clip0_17_61)">
<path d="M35 0C15.6702 0 0 15.6702 0 35C0 51.4136 11.3008 65.1868 26.5454 68.9696V45.696H19.3284V35H26.5454V30.3912C26.5454 18.4786 31.9368 12.957 43.6324 12.957C45.85 12.957 49.6762 13.3924 51.2414 13.8264V23.5214C50.4154 23.4346 48.9804 23.3912 47.1982 23.3912C41.4596 23.3912 39.242 25.5654 39.242 31.2172V35H50.6744L48.7102 45.696H39.242V69.7438C56.5726 67.6508 70.0014 52.8948 70.0014 35C70 15.6702 54.3298 0 35 0Z" fill="#F4F4F4"/>
</g>
<defs>
<clipPath id="clip0_17_61">
<rect width="70" height="70" fill="white"/>
</clipPath>
</defs>
</svg>
