<svg width="70" height="70" viewBox="0 0 70 70" fill="none" xmlns="http://www.w3.org/2000/svg">
<path d="M34.9995 28.6362V42.1908H53.8358C53.0086 46.5499 50.5265 50.2409 46.8038 52.7227L58.1629 61.5364C64.7811 55.4275 68.5993 46.4547 68.5993 35.7957C68.5993 33.3139 68.3766 30.9273 67.9628 28.6366L34.9995 28.6362Z" fill="#F4F4F4"/>
<path d="M15.3845 41.6617L12.8226 43.6228L3.75427 50.6864C9.51335 62.109 21.317 70 34.9987 70C44.4485 70 52.3711 66.8818 58.1622 61.5365L46.8031 52.7228C43.6849 54.8228 39.7076 56.0956 34.9987 56.0956C25.8988 56.0956 18.1672 49.9548 15.3988 41.682L15.3845 41.6617Z" fill="#F4F4F4"/>
<path d="M3.75427 19.3137C1.36804 24.0226 0 29.3363 0 34.9998C0 40.6633 1.36804 45.9771 3.75427 50.686C3.75427 50.7176 15.3999 41.6496 15.3999 41.6496C14.6999 39.5496 14.2862 37.3225 14.2862 34.9994C14.2862 32.6764 14.6999 30.4493 15.3999 28.3493L3.75427 19.3137Z" fill="#F4F4F4"/>
<path d="M34.9994 13.9364C40.1541 13.9364 44.7358 15.7181 48.3949 19.1545L58.4175 9.13194C52.3402 3.4684 44.4496 0 34.9994 0C21.3177 0 9.51335 7.85908 3.75427 19.3137L15.3996 28.35C18.1676 20.0772 25.8995 13.9364 34.9994 13.9364Z" fill="#F4F4F4"/>
</svg>
