<svg width="70" height="70" viewBox="0 0 70 70" fill="none" xmlns="http://www.w3.org/2000/svg">
<path fill-rule="evenodd" clip-rule="evenodd" d="M0 33.9491C0 14.4459 15.2862 0 35 0C54.7137 0 70 14.4546 70 33.9578C70 53.461 54.7137 67.9069 35 67.9069C31.4563 67.9069 28.0613 67.4344 24.8675 66.5594C24.2462 66.3932 23.5812 66.4369 22.995 66.6994L16.0475 69.7618C15.6279 69.9469 15.1693 70.0261 14.7119 69.9924C14.2545 69.9588 13.8124 69.8133 13.4244 69.5688C13.0365 69.3242 12.7145 68.9881 12.4868 68.5901C12.2592 68.192 12.1328 67.744 12.1187 67.2857L11.9263 61.0558C11.9088 60.2858 11.5587 59.5684 10.99 59.0609C4.1825 52.971 0 44.1513 0 33.9491ZM24.2638 27.5705L13.9825 43.88C12.9938 45.4463 14.9188 47.205 16.3888 46.085L27.4313 37.7027C27.7946 37.4268 28.2379 37.2766 28.6942 37.2751C29.1504 37.2735 29.5948 37.4205 29.96 37.694L38.1413 43.8276C38.7216 44.2633 39.3859 44.5741 40.0924 44.7402C40.7988 44.9063 41.532 44.9241 42.2457 44.7926C42.9594 44.661 43.6381 44.3829 44.2389 43.9759C44.8396 43.5688 45.3495 43.0416 45.7363 42.4276L56.0263 26.1268C57.0063 24.5606 55.0813 22.7931 53.6113 23.9131L42.5688 32.2954C42.2054 32.5713 41.7621 32.7214 41.3059 32.723C40.8496 32.7246 40.4053 32.5776 40.04 32.3041L31.8588 26.1705C31.2785 25.7347 30.6142 25.424 29.9077 25.2579C29.2013 25.0918 28.4681 25.074 27.7544 25.2055C27.0407 25.3371 26.362 25.6151 25.7612 26.0222C25.1604 26.4293 24.6505 26.9565 24.2638 27.5705Z" fill="#F4F4F4"/>
</svg>
